<svg xmlns="http://www.w3.org/2000/svg" width="754" height="162" viewBox="0 0 754 162" fill="none"><path d="M12.9456 80.7675H30.1976C33.4416 80.7675 36.4976 80.5728 39.3523 80.1848C42.2123 79.7981 45.1203 78.8261 48.0843 77.2728C50.6283 76.0035 52.7056 74.2755 54.3296 72.0875C55.9536 69.9008 57.243 67.5195 58.1936 64.9435C59.1483 62.3701 59.8176 59.6701 60.207 56.8475C60.5896 54.0248 60.787 51.3075 60.787 48.6968C60.787 45.9448 60.611 43.1395 60.255 40.2821C59.9016 37.4248 59.2323 34.7088 58.2483 32.1315C57.2576 29.5568 55.919 27.1941 54.2256 25.0421C52.5323 22.8901 50.343 21.1088 47.6603 19.6955C45.4016 18.4981 42.723 17.7221 39.6176 17.3688C36.5123 17.0168 33.3723 16.8395 30.1976 16.8395H12.9456V80.7675ZM5.75098 86.9061V10.6995H31.787C33.903 10.6995 35.9856 10.7528 38.0323 10.8581C40.0763 10.9648 42.0883 11.2128 44.0616 11.5995C46.0363 11.9888 47.9603 12.5688 49.831 13.3448C51.7016 14.1221 53.5176 15.1461 55.2843 16.4155C57.8243 18.2515 59.9016 20.4888 61.5256 23.1368C63.1496 25.7821 64.439 28.5701 65.3896 31.4968C66.3443 34.4248 67.0136 37.3901 67.403 40.3875C67.791 43.3875 67.983 46.1568 67.983 48.6968C67.983 51.2368 67.8256 53.8128 67.5056 56.4235C67.191 59.0355 66.679 61.5915 65.975 64.0968C65.2656 66.6021 64.331 69.0021 63.1696 71.2928C62.003 73.5861 60.5416 75.6861 58.775 77.5901C57.0123 79.5675 55.087 81.1541 53.0056 82.3555C50.923 83.5555 48.739 84.4888 46.4456 85.1581C44.151 85.8301 41.7683 86.2888 39.303 86.5341C36.8323 86.7821 34.327 86.9061 31.787 86.9061H5.75098Z" fill="black"></path><path d="M93.4033 86.6178V10.4125H144.099V16.5525H100.598V44.0698H139.866V50.2085H100.598V80.4805H145.157V86.6178H93.4033Z" fill="black"></path><path d="M630.662 157.489V137.199V133.618H634.688V157.489H630.662Z" fill="black"></path><path d="M667.233 141.528C667.267 139.449 665.735 137.097 662.289 137.097C659.389 137.097 657.447 138.767 657.447 141.665C657.447 144.393 659.22 146.067 662.119 146.067C665.357 146.067 667.267 143.984 667.233 141.528ZM654.377 156.023L655.948 152.988C657.415 153.945 659.424 154.488 661.232 154.488C665.872 154.488 668.02 151.012 667.883 145.86C666.62 148.076 664.368 149.236 661.369 149.236C656.595 149.236 653.696 146.271 653.696 141.632C653.696 136.687 657.004 133.617 662.085 133.617C668.12 133.617 671.805 137.916 671.805 145.247C671.805 152.851 667.813 157.829 661.505 157.829C659.152 157.829 656.32 157.112 654.377 156.023Z" fill="black"></path><path d="M690.813 157.489V137.199V133.618H694.84V157.489H690.813Z" fill="black"></path><path d="M723.873 143.644C727.865 143.988 730.59 146.306 730.59 150.056C730.59 154.524 727.215 157.625 721.894 157.625C718.961 157.625 715.893 156.604 713.846 155.037L715.518 151.761C717.222 153.364 719.441 154.25 721.623 154.25C724.791 154.25 726.634 152.614 726.634 150.158C726.634 147.565 724.759 146.236 721.586 146.236H718.282V143.885L724.486 137.2H714.939V133.617H729.467V136.144L722.646 143.508L723.873 143.644Z" fill="black"></path><path d="M239.755 88.2023C230.935 88.2023 218.935 83.3903 213.801 74.4569L219.658 71.2583C223.407 77.6156 232.918 81.5329 239.755 81.5329C257.771 81.5329 259.717 70.0369 259.717 65.0929C259.717 54.8569 251.613 51.2516 238.269 46.5316C227.587 42.7516 215.482 38.4689 215.482 26.0489C215.482 19.9689 218.089 14.9449 223.025 11.5236C227.151 8.6596 232.809 7.0836 238.954 7.0836C242.911 7.0836 246.881 7.75427 250.129 8.96894C251.587 9.5116 253.691 10.4116 255.483 12.0276L250.83 16.8223C250.125 16.2383 249.145 15.7209 247.79 15.2143C245.225 14.2543 242.062 13.7249 238.89 13.7249C234.159 13.7249 229.874 14.8889 226.827 17.0023C223.681 19.1849 222.15 22.1449 222.15 26.0489C222.151 33.3809 229.122 36.2183 240.491 40.2423C252.029 44.3263 266.385 49.4063 266.385 65.0929C266.385 82.1503 252.041 88.2023 239.755 88.2023Z" fill="black"></path><path d="M283.666 10.412H339.127V16.5506H314.996V86.616H307.799V16.5506H283.666V10.412Z" fill="black"></path><path d="M362.093 86.6165V10.4125H412.792V16.5511H369.291V44.0685H408.557V50.2071H369.291V80.4778H413.851V86.6165H362.093Z" fill="black"></path><path d="M517.533 56.5584H547.381L532.457 16.5504L517.533 56.5584ZM498.693 86.6157L528.646 10.4117H536.797L566.008 86.6157H558.6L549.814 62.6971H515.1L506.102 86.6157H498.693Z" fill="black"></path><path d="M596.172 20.1482H595.961V86.6162H588.763V10.4122H596.915L640.943 76.9855H641.156V10.4122H648.353V86.6162H639.992L596.172 20.1482Z" fill="black"></path><path d="M449.924 44.0682V16.5509H491.838V10.4122H442.728V86.6162H449.924V50.2069H485.553L487.965 44.0682H449.924Z" fill="black"></path><path d="M708.535 81.5598C690.314 81.5598 675.491 66.7358 675.491 48.5145C675.491 30.2931 690.314 15.4678 708.535 15.4678C726.757 15.4678 741.581 30.2931 741.581 48.5145C741.581 66.7358 726.757 81.5598 708.535 81.5598ZM708.535 8.53848C686.494 8.53848 668.561 26.4718 668.561 48.5145C668.561 70.5571 686.494 88.4905 708.535 88.4905C730.578 88.4905 748.511 70.5571 748.511 48.5145C748.511 26.4718 730.578 8.53848 708.535 8.53848Z" fill="black"></path></svg>