<?xml version="1.0" encoding="utf-8"?>
<!-- Generator: Adobe Illustrator 15.1.0, SVG Export Plug-In . SVG Version: 6.00 Build 0)  -->
<!DOCTYPE svg PUBLIC "-//W3C//DTD SVG 1.1//EN" "http://www.w3.org/Graphics/SVG/1.1/DTD/svg11.dtd">
<svg version="1.1" id="Capa_1" xmlns="http://www.w3.org/2000/svg" xmlns:xlink="http://www.w3.org/1999/xlink" x="0px" y="0px"
	 width="173.438px" height="93.75px" viewBox="0 0 173.438 93.75" enable-background="new 0 0 173.438 93.75" xml:space="preserve">
<g>
	<g>
		<path fill="#1F1F1F" d="M44.348,22.21C35.084,25.93,27.89,30.773,23.7,35.858c-3.234,3.906-4.708,7.726-4.722,11.556
			c0.014,3.834,1.488,7.654,4.722,11.56c3.212,3.877,8.164,7.646,14.474,10.859c1.912,0.97,3.96,1.879,6.095,2.742
			c-1.063-0.536-2.105-1.071-3.104-1.639c-5.937-3.363-10.594-7.324-13.619-11.392c-3.033-4.097-4.42-8.103-4.435-12.131
			c0.015-4.028,1.401-8.028,4.435-12.131C31.088,30.507,36.902,25.922,44.348,22.21 M153.602,35.858
			c-3.212-3.874-8.164-7.647-14.474-10.856c-1.912-0.97-3.96-1.883-6.103-2.746c1.064,0.528,2.106,1.071,3.112,1.635
			c5.937,3.371,10.594,7.323,13.612,11.391c3.033,4.104,4.427,8.103,4.441,12.131c-0.015,4.029-1.408,8.035-4.441,12.131
			c-3.536,4.782-9.351,9.364-16.796,13.077c9.264-3.724,16.458-8.567,20.647-13.648c3.228-3.906,4.708-7.726,4.715-11.56
			C158.31,43.584,156.829,39.764,153.602,35.858"/>
		<polygon fill="#1F1F1F" points="71.579,37.454 60.647,37.454 60.647,65.881 51.11,65.881 51.11,37.454 40.179,37.454 
			40.179,29.243 71.579,29.243 		"/>
		<path fill="#1F1F1F" d="M82.208,53.574c0.201,4.309,2.867,5.691,6.921,5.691c2.875,0,5.85-1.021,5.85-3.748
			c0-3.23-5.231-3.845-10.514-5.333c-5.239-1.491-10.73-3.852-10.73-10.571c0-8.006,8.057-11.136,14.935-11.136
			c7.287,0,14.625,3.536,14.676,11.804h-9.544c0.157-3.335-2.982-4.417-5.901-4.417c-2.055,0-4.621,0.722-4.621,3.126
			c0,2.828,5.29,3.342,10.622,4.83c5.29,1.487,10.63,3.945,10.63,10.575c0,9.281-7.913,12.258-15.962,12.258
			c-8.416,0-15.861-3.695-15.912-13.08H82.208z"/>
		<polygon fill="#1F1F1F" points="137.008,37.454 126.076,37.454 126.076,65.881 116.532,65.881 116.532,37.454 105.601,37.454 
			105.601,29.243 137.008,29.243 		"/>
		<path fill="#1F1F1F" d="M35.378,74.851c-13.669-6.835-22.423-16.404-22.452-27.328c0.029-10.932,8.782-20.497,22.452-27.332
			C49.084,13.345,67.885,9.155,88.654,9.152c20.763,0.003,39.563,4.193,53.269,11.039c13.67,6.834,22.423,16.4,22.452,27.332
			c-0.029,10.924-8.782,20.493-22.452,27.328c-13.705,6.842-32.506,11.035-53.269,11.039C67.885,85.886,49.084,81.692,35.378,74.851
			 M36.313,22.06c-13.36,6.684-21.323,15.775-21.302,25.463c-0.021,9.688,7.941,18.778,21.302,25.456
			c13.325,6.662,31.859,10.823,52.342,10.823c20.476,0,39.011-4.161,52.334-10.823c13.361-6.678,21.324-15.768,21.295-25.456
			c0.029-9.688-7.934-18.779-21.295-25.463c-13.323-6.659-31.858-10.82-52.334-10.817h-0.028
			C68.158,11.243,49.63,15.401,36.313,22.06"/>
		<path fill="#1F1F1F" d="M133.234,65.917c-2.242,0-3.838-1.679-3.838-3.896c0-2.346,1.768-3.891,3.838-3.891
			c2.041,0,3.809,1.545,3.809,3.891C137.043,64.365,135.275,65.917,133.234,65.917 M133.234,58.806
			c-1.696,0-3.004,1.322-3.004,3.216c0,1.769,1.143,3.22,3.004,3.22c1.66,0,2.976-1.308,2.976-3.22
			C136.21,60.128,134.895,58.806,133.234,58.806 M132.458,64.25h-0.704v-4.309h1.632c1.042,0,1.573,0.359,1.573,1.232
			c0,0.787-0.481,1.11-1.121,1.182l1.207,1.895h-0.805l-1.113-1.84h-0.669V64.25z M133.249,61.803c0.531,0,1.006-0.051,1.006-0.68
			c0-0.518-0.51-0.582-0.941-0.582h-0.855v1.262H133.249z"/>
	</g>
</g>
</svg>
